{"title":"The.A-Team.2010.EXTENDED.BRRip.XviD.MP3-Idiocracy","uid":8616437,"size":1013028977,"categoryP":"video","categoryS":"movies","magnet":"?xt=urn:btih:41dd0d375123794f99b5d23aa48597e87be91920&amp;dn=The.A-Team.2010.EXTENDED.BRRip.XviD.MP3-Idiocracy&amp;tr=udp%3A%2F%2Ftracker.openbittorrent.com%3A80&amp;tr=udp%3A%2F%2Fopen.demonii.com%3A1337&amp;tr=udp%3A%2F%2Ftracker.coppersurfer.tk%3A6969&amp;tr=udp%3A%2F%2Fexodus.desync.com%3A6969","seeders":1,"leechers":0,"uploader":"Satafakap","files":3,"time":1372264175,"description":"A group of Iraq War veterans looks to clear their name with the U.S. military, who suspect the four men of committing a crime for which they were framed. \n\nGeneral\n\nComplete name                            : The.A-Team.2010.EXTENDED.BRRip.XviD.MP3-Idiocracy.avi\nFormat                                   : AVI\nFormat/Info                              : Audio Video Interleave\nFile size                                : 955 MiB\nDuration                                 : 02:13:33\nOverall bit rate                         : 1 000 Kbps\nWriting application                      : VirtualDubMod 1.5.10.3 | www.virtualdub-fr.org || (build 2550/release)\nWriting library                          : VirtualDubMod build 2550/release\nSource\t\t\t\t\t : The.A-Team.2010.EXTENDED.720p.BRRip.XviD.AC3-ViSiON - Thanks.\nSample\t\t\t\t\t : Yes\n\nVideo\n\nID                                       : 0\nFormat                                   : MPEG-4 Visual\nFormat profile                           : Advanced Simple@L5\nFormat settings, BVOP                    : 4\nFormat settings, QPel                    : No\nFormat settings, GMC                     : No warppoints\nFormat settings, Matrix                  : Default (H.263)\nCodec ID                                 : XVID\nCodec ID/Hint                            : XviD\nDuration                                 : 2h 13mn\nBit rate                                 : 863 Kbps\nWidth                                    : 640 pixels\nHeight                                   : 272 pixels\nDisplay aspect ratio                     : 2.35:1\nFrame rate                               : 23.976 fps\nColor space                              : YUV\nChroma subsampling                       : 4:2:0\nBit depth                                : 8 bits\nScan type                                : Progressive\nCompression mode                         : Lossy\nBits/(Pixel*Frame)                       : 0.207\nStream size                              : 824 MiB (86%)\nWriting library                          : XviD 1.2.1 (UTC 2008-12-04)\n\nAudio\n\nID                                       : 1\nFormat                                   : MPEG Audio\nFormat version                           : Version 1\nFormat profile                           : Layer 3\nCodec ID                                 : 55\nCodec ID/Hint                            : MP3\nDuration                                 : 2h 13mn\nBit rate mode                            : Constant\nBit rate                                 : 128 Kbps\nChannel(s)                               : 2 channels\nSampling rate                            : 48.0 KHz\nCompression mode                         : Lossy\nStream size                              : 122 MiB (13%)\nAlignment                                : Aligned on interleaves\nInterleave, duration                     : 42 ms (1.00 video frame)\nInterleave, preload duration             : 504 ms\nWriting library                          : LAME3.99r\nEncoding settings                        : -m s -V 4 -q 2 -lowpass 17 -b 128\n","torrent":{"xt":"urn:btih:41dd0d375123794f99b5d23aa48597e87be91920","amp;dn":"The.A-Team.2010.EXTENDED.BRRip.XviD.MP3-Idiocracy","amp;tr":["udp%3A%2F%2Ftracker.openbittorrent.com%3A80","udp%3A%2F%2Fopen.demonii.com%3A1337","udp%3A%2F%2Ftracker.coppersurfer.tk%3A6969","udp%3A%2F%2Fexodus.desync.com%3A6969"],"infoHash":"41dd0d375123794f99b5d23aa48597e87be91920","infoHashBuffer":{"type":"Buffer","data":[65,221,13,55,81,35,121,79,153,181,210,58,164,133,151,232,123,233,25,32]},"announce":[],"urlList":[]}}